<svg xmlns="http://www.w3.org/2000/svg" xmlns:xlink="http://www.w3.org/1999/xlink" width="252" height="230"><defs><linearGradient id="e"><stop offset="0" stop-color="#b2e5e8"/><stop offset="1" stop-color="#b2e5e8" stop-opacity="0"/></linearGradient><linearGradient id="d"><stop offset="0" stop-color="#b2e5e8"/><stop offset="1" stop-color="#b2e5e8" stop-opacity=".206"/></linearGradient><linearGradient id="a"><stop offset="0" stop-color="#b2e5e8"/><stop offset="1" stop-color="#b2e5e8" stop-opacity="0"/></linearGradient><linearGradient id="b"><stop offset="0" stop-color="#b2e5e8"/><stop offset="1" stop-color="#b2e5e8" stop-opacity="0"/></linearGradient><linearGradient id="c"><stop offset="0" stop-color="#b2e5e8"/><stop offset="1" stop-color="#b2e5e8" stop-opacity="0"/></linearGradient><radialGradient xlink:href="#e" id="g" cx="75" cy="188.214" fx="75" fy="188.214" r="64.821" gradientTransform="matrix(1 0 0 .33333 0 125.476)" gradientUnits="userSpaceOnUse"/><radialGradient xlink:href="#e" id="f" gradientUnits="userSpaceOnUse" gradientTransform="matrix(1 0 0 .33333 0 125.476)" cx="75" cy="188.214" fx="75" fy="188.214" r="64.821"/></defs><path transform="matrix(1.05866 0 0 1.05866 17.568 -152.673)" d="m 139.82143,188.21428 c 0,11.93329 -29.02154,21.60714 -64.82143,21.60714 -35.799885,0 -64.821426,-9.67385 -64.821426,-21.60714 0,-11.9333 29.021541,-21.60714 64.821426,-21.60714 35.79989,0 64.82143,9.67384 64.82143,21.60714 z" fill="url(#f)"/><path d="m 139.82143,188.21428 c 0,11.93329 -29.02154,21.60714 -64.82143,21.60714 -35.799885,0 -64.821426,-9.67385 -64.821426,-21.60714 0,-11.9333 29.021541,-21.60714 64.821426,-21.60714 35.79989,0 64.82143,9.67384 64.82143,21.60714 z" transform="matrix(1.05866 0 0 1.05866 17.568 -6.578)" fill="url(#g)"/><g fill="none"><path d="m 158.65762,1006.6445 c 0,-13.06132 -31.61169,-23.64972 -70.60669,-23.64972 -38.994997,0 -70.606689,10.5884 -70.606689,23.64972" transform="matrix(1.00844 0 0 -1.01162 8.106 1211.03)"/><path d="m 17.444241,1006.5858 c 0,-13.06146 31.611692,-23.64986 70.606689,-23.64986 38.995,0 70.60669,10.5884 70.60669,23.64986" transform="matrix(1.00844 0 0 -1.01162 8.106 1211.03)"/><path d="m 158.59071,199.0267 c 0,14.52769 -35.33106,26.30471 -78.914128,26.30471 -43.583067,0 -78.9141232,-11.77702 -78.9141232,-26.30471" transform="matrix(.90228 0 0 -.90952 25.01 373.768)"/></g><path d="m 168.77891,1016.7596 40.32605,0 0,-144.26245 -40.0369,0" fill="none" stroke="#e36a5c" stroke-width="1.99" transform="translate(0 -822.362)"/><text style="line-height:125%" x="224.378" y="665.924" font-size="40" font-weight="400" letter-spacing="0" word-spacing="0" font-family="Sans" transform="translate(0 -822.362)"/><g style="line-height:125%" font-size="14.504" font-weight="700" letter-spacing="0" word-spacing="0" fill="#cccc49" font-family="Sans"><path d="m -973.76669,40.638762 c -0.67988,0.330494 -1.38572,0.578365 -2.11752,0.743612 -0.73182,0.165247 -1.48723,0.24787 -2.26625,0.24787 -1.76106,0 -3.15622,-0.491019 -4.18547,-1.473059 -1.02925,-0.986759 -1.54388,-2.322898 -1.54388,-4.008421 0,-1.704398 0.52407,-3.045258 1.57221,-4.022585 1.04814,-0.977308 2.48342,-1.465966 4.30587,-1.465977 0.70347,1.1e-5 1.37626,0.06611 2.01837,0.198296 0.64682,0.132208 1.25587,0.328144 1.82716,0.587808 l 0,2.188342 c -0.59018,-0.335207 -1.17798,-0.585438 -1.76342,-0.750693 -0.58073,-0.165239 -1.16382,-0.247862 -1.74926,-0.247871 -1.08591,9e-6 -1.92395,0.304535 -2.51412,0.91358 -0.58545,0.604339 -0.87817,1.470705 -0.87816,2.5991 -10e-6,1.118963 0.28327,1.982968 0.84984,2.592018 0.56655,0.609055 1.37154,0.913582 2.41496,0.91358 0.28328,2e-6 0.54531,-0.01652 0.78611,-0.04957 0.2455,-0.03777 0.46504,-0.09443 0.65863,-0.169969 l 0,-2.053784 -1.66428,0 0,-1.82716 4.24921,0 0,5.084887" style="-inkscape-font-specification:Sans Bold" transform="matrix(0 -1 1 0 0 -822.362)"/><path d="m -963.56859,37.437691 0,0.722365 -5.92764,0 c 0.0614,0.594892 0.27619,1.041059 0.64446,1.338501 0.36826,0.297447 0.88289,0.446169 1.54388,0.446167 0.53351,2e-6 1.07882,-0.0779 1.63594,-0.233706 0.56184,-0.160524 1.13784,-0.401312 1.72802,-0.722366 l 0,1.954637 c -0.59962,0.226624 -1.19923,0.396593 -1.79884,0.509905 -0.59961,0.118033 -1.19922,0.17705 -1.79883,0.17705 -1.43529,0 -2.55189,-0.363543 -3.34979,-1.09063 -0.79319,-0.731807 -1.18978,-1.756338 -1.18978,-3.073595 0,-1.293643 0.38951,-2.311092 1.16853,-3.052349 0.78374,-0.741243 1.86021,-1.111868 3.2294,-1.111876 1.24643,8e-6 2.24263,0.375354 2.98861,1.12604 0.75069,0.7507 1.12603,1.753985 1.12604,3.009857 m -2.60618,-0.84276 c 0,-0.481572 -0.14164,-0.868722 -0.42492,-1.161451 -0.27856,-0.297438 -0.64447,-0.44616 -1.09771,-0.446167 -0.49103,7e-6 -0.88998,0.139286 -1.19686,0.417839 -0.30689,0.273844 -0.49811,0.670437 -0.57365,1.189779 l 3.29314,0" style="-inkscape-font-specification:Sans Bold" transform="matrix(0 -1 1 0 0 -822.362)"/><path d="m -953.68209,36.594931 0,4.829935 -2.54953,0 0,-0.786104 0,-2.910708 c -10e-6,-0.684591 -0.0165,-1.156725 -0.0496,-1.416404 -0.0283,-0.259668 -0.0803,-0.450882 -0.15581,-0.573643 -0.0992,-0.165241 -0.23371,-0.292717 -0.40367,-0.382429 -0.16998,-0.09442 -0.36355,-0.141634 -0.58073,-0.14164 -0.52879,6e-6 -0.94427,0.205384 -1.24643,0.616135 -0.30217,0.406041 -0.45326,0.970241 -0.45325,1.692602 l 0,3.902191 -2.53536,0 0,-7.931858 2.53536,0 0,1.161451 c 0.38242,-0.462685 0.78846,-0.802621 1.21811,-1.019811 0.42963,-0.221895 0.90413,-0.332846 1.42348,-0.332854 0.91593,8e-6 1.60997,0.280927 2.08211,0.84276 0.47685,0.561846 0.71528,1.378638 0.71529,2.450377" style="-inkscape-font-specification:Sans Bold" transform="matrix(0 -1 1 0 0 -822.362)"/><path d="m -943.399,37.437691 0,0.722365 -5.92765,0 c 0.0614,0.594892 0.27619,1.041059 0.64446,1.338501 0.36826,0.297447 0.88289,0.446169 1.54388,0.446167 0.53351,2e-6 1.07882,-0.0779 1.63595,-0.233706 0.56183,-0.160524 1.13783,-0.401312 1.72801,-0.722366 l 0,1.954637 c -0.59962,0.226624 -1.19923,0.396593 -1.79883,0.509905 -0.59962,0.118033 -1.19923,0.17705 -1.79884,0.17705 -1.43529,0 -2.55188,-0.363543 -3.34979,-1.09063 -0.79319,-0.731807 -1.18978,-1.756338 -1.18978,-3.073595 0,-1.293643 0.38951,-2.311092 1.16853,-3.052349 0.78375,-0.741243 1.86021,-1.111868 3.2294,-1.111876 1.24643,8e-6 2.24263,0.375354 2.98861,1.12604 0.75069,0.7507 1.12604,1.753985 1.12605,3.009857 m -2.60619,-0.84276 c 0,-0.481572 -0.14164,-0.868722 -0.42492,-1.161451 -0.27856,-0.297438 -0.64447,-0.44616 -1.09771,-0.446167 -0.49102,7e-6 -0.88998,0.139286 -1.19686,0.417839 -0.30689,0.273844 -0.49811,0.670437 -0.57364,1.189779 l 3.29313,0" style="-inkscape-font-specification:Sans Bold" transform="matrix(0 -1 1 0 0 -822.362)"/><path d="m -935.59462,35.653023 c -0.22191,-0.103864 -0.44382,-0.179405 -0.66571,-0.226625 -0.21719,-0.05193 -0.43673,-0.0779 -0.65863,-0.0779 -0.65155,6e-6 -1.15437,0.210106 -1.50847,0.6303 -0.34938,0.415483 -0.52407,1.012732 -0.52407,1.79175 l 0,3.65432 -2.53536,0 0,-7.931858 2.53536,0 0,1.303091 c 0.32577,-0.519341 0.69876,-0.897048 1.11896,-1.133123 0.42491,-0.24078 0.93246,-0.361174 1.52263,-0.361182 0.085,8e-6 0.17705,0.0047 0.2762,0.01416 0.0991,0.0047 0.24314,0.01889 0.432,0.04249 l 0.007,2.294573" style="-inkscape-font-specification:Sans Bold" transform="matrix(0 -1 1 0 0 -822.362)"/><path d="m -930.76469,37.85553 c -0.52879,3e-6 -0.92775,0.08971 -1.19686,0.269116 -0.2644,0.179415 -0.3966,0.44381 -0.39659,0.793186 -10e-6,0.321054 0.10622,0.573645 0.31869,0.757776 0.21718,0.179412 0.51698,0.269118 0.89941,0.269116 0.47685,2e-6 0.87817,-0.169966 1.20395,-0.509905 0.32576,-0.344655 0.48865,-0.774297 0.48866,-1.288927 l 0,-0.290362 -1.31726,0 m 3.87386,-0.956072 0,4.525408 -2.5566,0 0,-1.175615 c -0.33995,0.481578 -0.72238,0.833318 -1.14729,1.05522 -0.42493,0.217182 -0.94191,0.325773 -1.55096,0.325773 -0.82152,0 -1.48959,-0.238428 -2.00421,-0.715283 -0.50991,-0.481576 -0.76486,-1.104793 -0.76486,-1.869653 0,-0.930101 0.31869,-1.612334 0.95607,-2.046702 0.6421,-0.434359 1.64775,-0.65154 3.01694,-0.651546 l 1.49431,0 0,-0.198296 c -10e-6,-0.401309 -0.15818,-0.694032 -0.4745,-0.87817 -0.31633,-0.188847 -0.80971,-0.283274 -1.48014,-0.283281 -0.54296,7e-6 -1.04814,0.0543 -1.51555,0.162887 -0.46742,0.108597 -0.90178,0.271483 -1.30309,0.488659 l 0,-1.93339 c 0.54295,-0.13219 1.08826,-0.231338 1.63594,-0.297445 0.54768,-0.07081 1.09535,-0.106222 1.64303,-0.10623 1.43056,8e-6 2.46217,0.283288 3.09484,0.849842 0.63737,0.561846 0.95606,1.477786 0.95607,2.747822" style="-inkscape-font-specification:Sans Bold" transform="matrix(0 -1 1 0 0 -822.362)"/><path d="m -921.74928,31.240927 0,2.252081 2.61326,0 0,1.812996 -2.61326,0 0,3.363958 c -10e-6,0.368267 0.0732,0.618498 0.21954,0.750693 0.14636,0.127478 0.43672,0.191217 0.87109,0.191215 l 1.30309,0 0,1.812996 -2.17418,0 c -1.00093,0 -1.71149,-0.207739 -2.13169,-0.623218 -0.41548,-0.420198 -0.62322,-1.13076 -0.62321,-2.131686 l 0,-3.363958 -1.2606,0 0,-1.812996 1.2606,0 0,-2.252081 2.53536,0" style="-inkscape-font-specification:Sans Bold" transform="matrix(0 -1 1 0 0 -822.362)"/><path d="m -911.68574,35.653023 c -0.22191,-0.103864 -0.44381,-0.179405 -0.66571,-0.226625 -0.21719,-0.05193 -0.43673,-0.0779 -0.65862,-0.0779 -0.65156,6e-6 -1.15438,0.210106 -1.50847,0.6303 -0.34939,0.415483 -0.52408,1.012732 -0.52407,1.79175 l 0,3.65432 -2.53536,0 0,-7.931858 2.53536,0 0,1.303091 c 0.32577,-0.519341 0.69875,-0.897048 1.11896,-1.133123 0.42491,-0.24078 0.93245,-0.361174 1.52263,-0.361182 0.085,8e-6 0.17704,0.0047 0.2762,0.01416 0.0991,0.0047 0.24314,0.01889 0.432,0.04249 l 0.007,2.294573" style="-inkscape-font-specification:Sans Bold" transform="matrix(0 -1 1 0 0 -822.362)"/><path d="m -910.41098,33.493008 2.53537,0 0,7.931858 -2.53537,0 0,-7.931858 m 0,-3.087759 2.53537,0 0,2.067949 -2.53537,0 0,-2.067949" style="-inkscape-font-specification:Sans Bold" transform="matrix(0 -1 1 0 0 -822.362)"/><path d="m -905.81475,33.493008 6.91913,0 0,1.770504 -4.17839,4.348358 4.17839,0 0,1.812996 -7.09618,0 0,-1.770504 4.17839,-4.348358 -4.00134,0 0,-1.812996" style="-inkscape-font-specification:Sans Bold" transform="matrix(0 -1 1 0 0 -822.362)"/></g><text style="line-height:125%" x="403.827" y="891.299" font-size="40" font-weight="400" letter-spacing="0" word-spacing="0" font-family="Sans" transform="translate(0 -822.362)"/><g style="line-height:125%" font-size="15.919" font-weight="700" letter-spacing="0" word-spacing="0" fill="#e36a5c" font-family="Sans"><path d="m -964.38344,226.62827 -4.67944,0 -0.73845,2.1143 -3.00821,0 4.29856,-11.60532 3.56788,0 4.29855,11.60532 -3.00821,0 -0.73068,-2.1143 m -3.93321,-2.15316 3.17922,0 -1.58573,-4.61726 -1.59349,4.61726" style="-inkscape-font-specification:Sans Bold" transform="matrix(0 -1 1 0 0 -822.362)"/><path d="m -959.23761,216.64754 2.78279,0 0,12.09503 -2.78279,0 0,-12.09503" style="-inkscape-font-specification:Sans Bold" transform="matrix(0 -1 1 0 0 -822.362)"/><path d="m -950.726,217.56477 0,2.47186 2.86829,0 0,1.98993 -2.86829,0 0,3.69225 c 0,0.40421 0.0803,0.67886 0.24097,0.82396 0.16064,0.13991 0.47934,0.20987 0.9561,0.20987 l 1.43026,0 0,1.98993 -2.38636,0 c -1.09861,0 -1.87852,-0.22801 -2.33972,-0.68404 -0.45603,-0.4612 -0.68404,-1.24111 -0.68404,-2.33972 l 0,-3.69225 -1.38362,0 0,-1.98993 1.38362,0 0,-2.47186 2.78279,0" style="-inkscape-font-specification:Sans Bold" transform="matrix(0 -1 1 0 0 -822.362)"/><path d="m -946.24089,225.35347 0,-5.31684 2.79834,0 0,0.8706 c -10e-6,0.47158 -0.003,1.06493 -0.008,1.78005 -0.005,0.70995 -0.008,1.18412 -0.008,1.42249 0,0.69959 0.0181,1.20484 0.0544,1.51576 0.0363,0.30575 0.0985,0.52858 0.18656,0.66849 0.114,0.18138 0.26169,0.3213 0.44307,0.41976 0.18655,0.0985 0.39902,0.14769 0.6374,0.14769 0.58039,0 1.03641,-0.22283 1.36807,-0.6685 0.33165,-0.44565 0.49748,-1.06492 0.49748,-1.85778 l 0,-4.29856 2.78279,0 0,8.70594 -2.78279,0 0,-1.25925 c -0.41975,0.50784 -0.86541,0.88355 -1.33698,1.12711 -0.46639,0.23837 -0.98201,0.35756 -1.54686,0.35756 -1.00533,0 -1.77228,-0.30833 -2.30085,-0.92501 -0.52339,-0.61666 -0.78509,-1.51317 -0.78509,-2.68951" style="-inkscape-font-specification:Sans Bold" transform="matrix(0 -1 1 0 0 -822.362)"/><path d="m -928.33154,222.40745 c -0.24356,-0.114 -0.48712,-0.19692 -0.73067,-0.24874 -0.23839,-0.057 -0.47935,-0.0855 -0.72291,-0.0855 -0.71513,10e-6 -1.26703,0.23061 -1.65568,0.69181 -0.38348,0.45603 -0.57522,1.11157 -0.57521,1.96661 l 0,4.01095 -2.78279,0 0,-8.70594 2.78279,0 0,1.43026 c 0.35756,-0.57002 0.76695,-0.98459 1.22816,-1.2437 0.46638,-0.26428 1.02346,-0.39642 1.67123,-0.39643 0.0933,1e-5 0.19432,0.005 0.30315,0.0155 0.10882,0.005 0.26687,0.0207 0.47416,0.0466 l 0.008,2.51851" style="-inkscape-font-specification:Sans Bold" transform="matrix(0 -1 1 0 0 -822.362)"/><path d="m -923.03024,224.8249 c -0.5804,0 -1.01829,0.0985 -1.31367,0.29538 -0.2902,0.19692 -0.4353,0.48712 -0.43529,0.87059 -1e-5,0.35239 0.11659,0.62963 0.34979,0.83173 0.23837,0.19692 0.56743,0.29538 0.98719,0.29538 0.52339,0 0.96386,-0.18655 1.32143,-0.55967 0.35756,-0.37829 0.53635,-0.84986 0.53635,-1.41471 l 0,-0.3187 -1.4458,0 m 4.25191,-1.04938 0,4.96705 -2.80611,0 0,-1.29034 c -0.37312,0.52857 -0.79287,0.91464 -1.25925,1.1582 -0.46639,0.23837 -1.03383,0.35756 -1.70232,0.35756 -0.90169,0 -1.63496,-0.2617 -2.1998,-0.78509 -0.55967,-0.52857 -0.8395,-1.21261 -0.8395,-2.05211 0,-1.02087 0.34979,-1.76969 1.04937,-2.24644 0.70477,-0.47675 1.80855,-0.71513 3.31137,-0.71513 l 1.64013,0 0,-0.21765 c 0,-0.44048 -0.1736,-0.76177 -0.5208,-0.96387 -0.34721,-0.20728 -0.88874,-0.31092 -1.62459,-0.31093 -0.59594,1e-5 -1.15043,0.0596 -1.66345,0.17878 -0.51303,0.1192 -0.98979,0.29798 -1.43026,0.53635 l 0,-2.12207 c 0.59594,-0.14509 1.19447,-0.25392 1.79559,-0.32647 0.60112,-0.0777 1.20225,-0.11659 1.80338,-0.1166 1.57017,1e-5 2.70246,0.31093 3.39687,0.93278 0.69957,0.61668 1.04936,1.622 1.04937,3.01598" style="-inkscape-font-specification:Sans Bold" transform="matrix(0 -1 1 0 0 -822.362)"/></g><g fill="none"><path d="m 158.65762,1006.6445 c 0,-13.06132 -31.61169,-23.64972 -70.60669,-23.64972 -38.994997,0 -70.606689,10.5884 -70.606689,23.64972" transform="matrix(1.00844 0 0 1.01162 8.106 -825.53)"/><path d="m 17.444241,1006.5858 c 0,-13.06146 31.611692,-23.64986 70.606689,-23.64986 38.995,0 70.60669,10.5884 70.60669,23.64986" stroke="#4c4c4c" stroke-width="2.242" stroke-dasharray="6.726,6.726" transform="matrix(1.00844 0 0 1.01162 8.106 -825.53)"/><path transform="matrix(.90228 0 0 .90952 25.01 11.731)" d="m 158.59071,199.0267 c 0,14.52769 -35.33106,26.30471 -78.914128,26.30471 -43.583067,0 -78.9141232,-11.77702 -78.9141232,-26.30471" stroke="#4c4c4c" stroke-width="2.5"/></g><path d="m 142.67857,169.28572 c 0,12.62365 -30.70048,22.85714 -68.57143,22.85714 -37.870953,0 -68.5714268,-10.23349 -68.5714268,-22.85714 0,-12.62365 30.7004738,-22.85714 68.5714268,-22.85714 37.87095,0 68.57143,10.23349 68.57143,22.85714 z" transform="matrix(1.04036 0 0 1.0468 19.773 -129.186)" fill="none" stroke="#4c4c4c" stroke-width="2.124"/><path d="m 25.645451,1015.2714 0,-146.50941" fill="none" stroke="#cccc49" stroke-width="2.117" transform="translate(0 -822.362)"/><path d="m 168.11437,1015.7441 0,-146.18153" fill="#cccc49" stroke="#4c4c4c" stroke-width="2.223" transform="translate(0 -822.362)"/><path d="m 169.54128,63.763159 0,-5.919178 5.12616,2.959589 z" transform="matrix(.81882 0 0 .81882 65.048 .31)" fill="#e36a5c" stroke="#e36a5c" stroke-width="2.1"/><path transform="matrix(.81882 0 0 .81882 65.048 144.288)" d="m 169.54128,63.763159 0,-5.919178 5.12616,2.959589 z" fill="#e36a5c" stroke="#e36a5c" stroke-width="2.1"/><path d="m 94.960866,831.03596 0,218.61804" fill="none" stroke="#e36a5c" stroke-width="1.692" stroke-dasharray="13.53395339,6.76697669" transform="translate(0 -822.362)"/><text style="line-height:125%" x="161.101" y="817.781" font-size="40" font-weight="400" letter-spacing="0" word-spacing="0" font-family="Sans" transform="translate(0 -822.362)"/><path transform="matrix(.54862 0 0 .54862 22.958 27.421)" d="m 134.28571,35.535713 c 0,1.676579 -1.35913,3.035715 -3.03571,3.035715 -1.67658,0 -3.03571,-1.359136 -3.03571,-3.035715 0,-1.676579 1.35913,-3.035714 3.03571,-3.035714 1.67658,0 3.03571,1.359135 3.03571,3.035714 z" fill="#e36a5c" stroke="#4c4c4c" stroke-width="1.92"/><g style="line-height:125%" font-size="15.227" font-weight="700" letter-spacing="0" word-spacing="0" fill="#66b8be" font-family="Sans"><path d="m 115.8665,1015.8354 c 0.45107,0 0.79309,-0.099 1.02607,-0.2974 0.23296,-0.1983 0.34945,-0.4907 0.34945,-0.8773 0,-0.3817 -0.11649,-0.6717 -0.34945,-0.87 -0.23298,-0.2032 -0.575,-0.3048 -1.02607,-0.3048 l -1.5837,0 0,2.3495 1.5837,0 m 0.0967,4.8552 c 0.57499,0 1.00623,-0.1214 1.29374,-0.3643 0.29244,-0.2429 0.43867,-0.6097 0.43867,-1.1004 0,-0.4808 -0.14375,-0.8402 -0.43124,-1.0781 -0.2875,-0.2429 -0.72123,-0.3643 -1.30117,-0.3643 l -1.68036,0 0,2.9071 1.68036,0 m 2.66182,-3.9927 c 0.61464,0.1785 1.09049,0.5081 1.42757,0.9889 0.33705,0.4808 0.50558,1.0707 0.50559,1.7696 -10e-6,1.0707 -0.36185,1.8687 -1.08554,2.3941 -0.72371,0.5255 -1.82412,0.7882 -3.30125,0.7882 l -4.75112,0 0,-11.1009 4.29757,0 c 1.54157,1e-4 2.65685,0.233 3.34586,0.699 0.69395,0.4659 1.04092,1.2119 1.04093,2.238 -1e-5,0.5403 -0.1264,1.0013 -0.37919,1.3829 -0.25281,0.3768 -0.61962,0.6568 -1.10042,0.8402" style="-inkscape-font-specification:Sans Bold" transform="translate(0 -822.362)"/><path d="m 126.63274,1018.8913 c -0.55517,0 -0.97402,0.094 -1.25656,0.2825 -0.27758,0.1884 -0.41637,0.466 -0.41637,0.8328 0,0.3371 0.11153,0.6023 0.33459,0.7956 0.22801,0.1883 0.54277,0.2825 0.94427,0.2825 0.50064,0 0.92197,-0.1784 1.26399,-0.5353 0.34202,-0.3619 0.51303,-0.8129 0.51304,-1.3532 l 0,-0.3049 -1.38296,0 m 4.06708,-1.0038 0,4.7512 -2.68412,0 0,-1.2343 c -0.3569,0.5056 -0.7584,0.8749 -1.20451,1.1079 -0.44612,0.228 -0.9889,0.342 -1.62832,0.342 -0.86249,0 -1.56388,-0.2503 -2.10418,-0.751 -0.53534,-0.5056 -0.803,-1.1599 -0.803,-1.9629 0,-0.9765 0.33458,-1.6927 1.00375,-2.1488 0.67413,-0.456 1.72994,-0.684 3.16742,-0.684 l 1.56884,0 0,-0.2082 c -1e-5,-0.4213 -0.16606,-0.7286 -0.49816,-0.922 -0.33212,-0.1982 -0.85011,-0.2974 -1.55397,-0.2974 -0.57004,0 -1.10042,0.057 -1.59114,0.171 -0.49073,0.1141 -0.94676,0.2851 -1.36809,0.5131 l 0,-2.0298 c 0.57003,-0.1388 1.14255,-0.2429 1.71754,-0.3123 0.57499,-0.074 1.14998,-0.1115 1.72498,-0.1116 1.50191,10e-5 2.58498,0.2975 3.2492,0.8923 0.66917,0.5898 1.00375,1.5515 1.00376,2.8848" style="-inkscape-font-specification:Sans Bold" transform="translate(0 -822.362)"/><path d="m 139.69647,1014.5714 0,2.0224 c -0.57004,-0.2379 -1.12025,-0.4164 -1.65063,-0.5353 -0.53038,-0.119 -1.03102,-0.1785 -1.50192,-0.1785 -0.5056,0 -0.88231,0.064 -1.13015,0.1933 -0.24289,0.124 -0.36433,0.3173 -0.36433,0.58 0,0.2131 0.0917,0.3767 0.2751,0.4907 0.18836,0.114 0.52295,0.1983 1.00376,0.2528 l 0.46842,0.067 c 1.36313,0.1735 2.28014,0.4586 2.75104,0.8551 0.4709,0.3965 0.70634,1.0186 0.70635,1.8662 -1e-5,0.8873 -0.32716,1.554 -0.98145,2.0001 -0.65431,0.4461 -1.6308,0.6692 -2.92949,0.6692 -0.55021,0 -1.12024,-0.045 -1.7101,-0.1338 -0.58491,-0.084 -1.18717,-0.2132 -1.80677,-0.3867 l 0,-2.0224 c 0.53038,0.2578 1.07315,0.4511 1.62832,0.58 0.56012,0.1289 1.12768,0.1933 1.70267,0.1933 0.52046,0 0.91205,-0.072 1.17477,-0.2156 0.26271,-0.1438 0.39406,-0.3569 0.39407,-0.6394 -1e-5,-0.238 -0.0917,-0.4139 -0.27511,-0.528 -0.17845,-0.1189 -0.53782,-0.2106 -1.07811,-0.2751 l -0.46842,-0.059 c -1.18468,-0.1487 -2.01495,-0.4238 -2.4908,-0.8253 -0.47586,-0.4015 -0.71379,-1.0112 -0.71379,-1.8291 0,-0.8823 0.30237,-1.5366 0.9071,-1.9629 0.60473,-0.4263 1.53166,-0.6394 2.78078,-0.6395 0.49073,10e-5 1.00624,0.037 1.54654,0.1116 0.54028,0.074 1.12767,0.1908 1.76215,0.3494" style="-inkscape-font-specification:Sans Bold" transform="translate(0 -822.362)"/><path d="m 150.57424,1018.4526 0,0.7584 -6.22331,0 c 0.0644,0.6246 0.28997,1.093 0.67661,1.4053 0.38663,0.3123 0.92692,0.4684 1.62089,0.4684 0.56011,0 1.13262,-0.082 1.71754,-0.2454 0.58985,-0.1685 1.19458,-0.4213 1.8142,-0.7584 l 0,2.0522 c -0.62953,0.2379 -1.25905,0.4163 -1.88856,0.5353 -0.62952,0.1239 -1.25904,0.1859 -1.88855,0.1859 -1.50688,0 -2.67917,-0.3817 -3.51687,-1.145 -0.83275,-0.7683 -1.24912,-1.844 -1.24912,-3.2269 0,-1.3582 0.40894,-2.4264 1.22681,-3.2046 0.82284,-0.7782 1.95299,-1.1673 3.39048,-1.1674 1.30859,10e-5 2.35448,0.3941 3.13767,1.1822 0.78813,0.7882 1.1822,1.8415 1.18221,3.16 m -2.73618,-0.8848 c 0,-0.5056 -0.14871,-0.912 -0.44611,-1.2193 -0.29246,-0.3123 -0.67661,-0.4685 -1.15246,-0.4685 -0.51552,0 -0.93437,0.1463 -1.25656,0.4387 -0.3222,0.2875 -0.52295,0.7039 -0.60226,1.2491 l 3.45739,0" style="-inkscape-font-specification:Sans Bold" transform="translate(0 -822.362)"/></g><path d="m 134.28571,35.535713 c 0,1.676579 -1.35913,3.035715 -3.03571,3.035715 -1.67658,0 -3.03571,-1.359136 -3.03571,-3.035715 0,-1.676579 1.35913,-3.035714 3.03571,-3.035714 1.67658,0 3.03571,1.359135 3.03571,3.035714 z" transform="matrix(.54862 0 0 .54862 22.958 173.517)" fill="#e36a5c" stroke="#4c4c4c" stroke-width="1.92"/><g style="line-height:125%" font-size="15.919" font-weight="700" letter-spacing="0" word-spacing="0" fill="#e36a5c" font-family="Sans"><path d="m 101.04958,825.59939 8.07631,0 0,2.26199 -5.08365,0 0,2.16094 4.7805,0 0,2.26198 -4.7805,0 0,2.65842 5.25466,0 0,2.26199 -8.24732,0 0,-11.60532" style="-inkscape-font-specification:Sans Bold" transform="translate(0 -822.362)"/><path d="m 111.80763,828.49878 2.78279,0 0,8.55047 c -10e-6,1.16597 -0.27984,2.0547 -0.8395,2.66619 -0.55967,0.61667 -1.37067,0.925 -2.433,0.92501 l -1.37585,0 0,-1.82669 0.48194,0 c 0.52857,-10e-6 0.89132,-0.11919 1.08824,-0.35757 0.19692,-0.23838 0.29538,-0.70736 0.29538,-1.40694 l 0,-8.55047 m 0,-3.3891 2.78279,0 0,2.26976 -2.78279,0 0,-2.26976" style="-inkscape-font-specification:Sans Bold" transform="translate(0 -822.362)"/><path d="m 125.97032,832.82842 0,0.79287 -6.50613,0 c 0.0674,0.65294 0.30315,1.14265 0.70735,1.46912 0.4042,0.32648 0.96905,0.48971 1.69455,0.48971 0.58557,0 1.18411,-0.0855 1.7956,-0.25651 0.61666,-0.17619 1.24888,-0.44048 1.89665,-0.79286 l 0,2.14539 c -0.65813,0.24874 -1.31626,0.43529 -1.97438,0.55966 -0.65813,0.12956 -1.31626,0.19433 -1.97438,0.19433 -1.57537,0 -2.80093,-0.39902 -3.6767,-1.19706 -0.8706,-0.80323 -1.3059,-1.92774 -1.30589,-3.37355 -1e-5,-1.41989 0.42752,-2.53664 1.28257,-3.35023 0.86022,-0.81358 2.04174,-1.22038 3.54456,-1.22039 1.36806,10e-6 2.46149,0.41199 3.28027,1.23593 0.82394,0.82396 1.23592,1.92516 1.23593,3.30359 m -2.86052,-0.925 c -1e-5,-0.52857 -0.15547,-0.9535 -0.46639,-1.2748 -0.30575,-0.32646 -0.70737,-0.4897 -1.20484,-0.48971 -0.53894,10e-6 -0.97683,0.15288 -1.31366,0.45862 -0.33685,0.30057 -0.54672,0.73586 -0.62963,1.30589 l 3.61452,0" style="-inkscape-font-specification:Sans Bold" transform="translate(0 -822.362)"/></g><g style="line-height:125%" font-size="15.227" font-weight="700" letter-spacing="0" word-spacing="0" fill="#66b8be" font-family="Sans"><path d="m 119.07472,867.72196 c 0.45106,0 0.79308,-0.0991 1.02606,-0.29741 0.23297,-0.19827 0.34945,-0.49072 0.34946,-0.87736 -10e-6,-0.38167 -0.11649,-0.67164 -0.34946,-0.86993 -0.23298,-0.20322 -0.575,-0.30483 -1.02606,-0.30484 l -1.58371,0 0,2.34954 1.58371,0 m 0.0967,4.85521 c 0.57498,0 1.00623,-0.12144 1.29373,-0.36432 0.29244,-0.24289 0.43867,-0.60969 0.43868,-1.10042 -1e-5,-0.48081 -0.14376,-0.84018 -0.43125,-1.07811 -0.2875,-0.24288 -0.72122,-0.36432 -1.30116,-0.36433 l -1.68037,0 0,2.90718 1.68037,0 m 2.66181,-3.99272 c 0.61464,0.17845 1.0905,0.50808 1.42757,0.98888 0.33706,0.48082 0.50559,1.07068 0.5056,1.76959 -1e-5,1.07068 -0.36186,1.86873 -1.08555,2.39415 -0.7237,0.52543 -1.82412,0.78814 -3.30125,0.78814 l -4.75112,0 0,-11.10083 4.29757,0 c 1.54157,2e-5 2.65686,0.23299 3.34586,0.69892 0.69395,0.46595 1.04093,1.21195 1.04094,2.23801 -1e-5,0.5403 -0.12641,1.00128 -0.3792,1.38295 -0.25281,0.37673 -0.61961,0.65679 -1.10042,0.84019" style="-inkscape-font-specification:Sans Bold" transform="translate(0 -822.362)"/><path d="m 129.84095,870.77784 c -0.55516,10e-6 -0.97402,0.0942 -1.25655,0.28254 -0.27759,0.18837 -0.41638,0.46595 -0.41638,0.83275 0,0.33707 0.11153,0.60226 0.33459,0.79557 0.22801,0.18836 0.54277,0.28254 0.94428,0.28254 0.50063,0 0.92196,-0.17844 1.26399,-0.53534 0.34201,-0.36184 0.51302,-0.81291 0.51303,-1.35321 l 0,-0.30485 -1.38296,0 m 4.06708,-1.00376 0,4.75113 -2.68412,0 0,-1.23425 c -0.3569,0.50559 -0.7584,0.87488 -1.20451,1.10785 -0.44612,0.22801 -0.98889,0.34202 -1.62832,0.34202 -0.86249,0 -1.56388,-0.25032 -2.10417,-0.75096 -0.53534,-0.5056 -0.80301,-1.1599 -0.80301,-1.96291 0,-0.97649 0.33459,-1.69275 1.00376,-2.14878 0.67413,-0.45603 1.72993,-0.68404 3.16741,-0.68404 l 1.56884,0 0,-0.20819 c -1e-5,-0.42133 -0.16606,-0.72865 -0.49816,-0.92197 -0.33211,-0.19827 -0.8501,-0.29741 -1.55397,-0.29741 -0.57004,0 -1.10042,0.057 -1.59114,0.17101 -0.49073,0.11401 -0.94676,0.28502 -1.36809,0.51303 l 0,-2.02982 c 0.57004,-0.13878 1.14255,-0.24288 1.71755,-0.31228 0.57499,-0.0743 1.14998,-0.11152 1.72497,-0.11153 1.50192,10e-6 2.58498,0.29742 3.24921,0.89223 0.66916,0.58987 1.00375,1.55149 1.00375,2.88487" style="-inkscape-font-specification:Sans Bold" transform="translate(0 -822.362)"/><path d="m 142.90468,866.45796 0,2.02239 c -0.57004,-0.23792 -1.12025,-0.41637 -1.65062,-0.53534 -0.53039,-0.11895 -1.03103,-0.17844 -1.50192,-0.17844 -0.5056,0 -0.88232,0.0644 -1.13016,0.19331 -0.24289,0.12393 -0.36433,0.31725 -0.36433,0.57995 0,0.21315 0.0917,0.37673 0.27511,0.49073 0.18835,0.11401 0.52294,0.19828 1.00376,0.2528 l 0.46842,0.0669 c 1.36312,0.17349 2.28013,0.45851 2.75104,0.85505 0.47089,0.39655 0.70634,1.01863 0.70635,1.86625 -1e-5,0.88727 -0.32716,1.55396 -0.98146,2.00008 -0.6543,0.44611 -1.6308,0.66917 -2.92948,0.66917 -0.55022,0 -1.12025,-0.0446 -1.71011,-0.13383 -0.58491,-0.0843 -1.18716,-0.21315 -1.80676,-0.38664 l 0,-2.02238 c 0.53037,0.25775 1.07315,0.45107 1.62831,0.57994 0.56012,0.12888 1.12768,0.19332 1.70268,0.19332 0.52046,0 0.91205,-0.0719 1.17476,-0.21562 0.26271,-0.14375 0.39407,-0.35689 0.39407,-0.63943 0,-0.23793 -0.0917,-0.4139 -0.2751,-0.5279 -0.17845,-0.11897 -0.53782,-0.21067 -1.07811,-0.27511 l -0.46842,-0.0595 c -1.18469,-0.1487 -2.01496,-0.42381 -2.49081,-0.82531 -0.47586,-0.4015 -0.71378,-1.01119 -0.71378,-1.82907 0,-0.88231 0.30236,-1.53661 0.9071,-1.96291 0.60473,-0.42628 1.53165,-0.63942 2.78078,-0.63943 0.49072,10e-6 1.00623,0.0372 1.54653,0.11153 0.54029,0.0744 1.12767,0.19084 1.76215,0.34945" style="-inkscape-font-specification:Sans Bold" transform="translate(0 -822.362)"/><path d="m 153.78245,870.33916 0,0.7584 -6.2233,0 c 0.0644,0.62456 0.28997,1.09298 0.67661,1.40526 0.38662,0.31228 0.92692,0.46842 1.62088,0.46842 0.56011,0 1.13263,-0.0818 1.71754,-0.24536 0.58986,-0.16853 1.19459,-0.42133 1.8142,-0.7584 l 0,2.05213 c -0.62952,0.23793 -1.25904,0.41637 -1.88855,0.53534 -0.62953,0.12392 -1.25904,0.18588 -1.88855,0.18588 -1.50688,0 -2.67917,-0.38168 -3.51688,-1.14503 -0.83274,-0.76831 -1.24912,-1.84394 -1.24912,-3.2269 0,-1.35816 0.40894,-2.42636 1.22682,-3.20459 0.82283,-0.77821 1.95299,-1.16732 3.39047,-1.16733 1.3086,10e-6 2.35449,0.39408 3.13768,1.1822 0.78812,0.78815 1.18219,1.84147 1.1822,3.15998 m -2.73617,-0.88479 c -1e-5,-0.50559 -0.14871,-0.91205 -0.44612,-1.21938 -0.29246,-0.31228 -0.67661,-0.46842 -1.15246,-0.46842 -0.51551,0 -0.93437,0.14623 -1.25656,0.43868 -0.32219,0.2875 -0.52295,0.70387 -0.60225,1.24912 l 3.45739,0" style="-inkscape-font-specification:Sans Bold" transform="translate(0 -822.362)"/></g></svg>